inDegrees=no
num_controls=7
num_derivatives=13
num_iterations=212
num_multipliers=7
num_parameters=0
num_slacks=7
num_states=26
objective=6.097302
objective_accelerations=0.638705
objective_balance=0.047179
objective_effort=0.577847
objective_height=4.739714
objective_ligament=0.093856
solver_duration=2179.089505
status=Solve_Succeeded
success=true
DataType=double
version=3
OpenSimVersion=4.4-2022-07-23-0e9fedc
endheader
time	/jointset/ground_pelvis/pelvis_tilt/value	/jointset/ground_pelvis/pelvis_tx/value	/jointset/ground_pelvis/pelvis_ty/value	/jointset/hip_l/hip_flexion_l/value	/jointset/hip_l/hip_adduction_l/value	/jointset/hip_l/hip_rotation_l/value	/jointset/back/lumbar_extension/value	/jointset/patellofemoral_l/patellar_flexion_l/value	/jointset/knee_l/knee_flexion_l/value	/jointset/knee_l/knee_adduction_l/value	/jointset/knee_l/knee_rotation_l/value	/jointset/ankle_l/ankle_angle_l/value	/jointset/subtalar_l/subtalar_angle_l/value	/jointset/ground_pelvis/pelvis_tilt/speed	/jointset/ground_pelvis/pelvis_tx/speed	/jointset/ground_pelvis/pelvis_ty/speed	/jointset/hip_l/hip_flexion_l/speed	/jointset/hip_l/hip_adduction_l/speed	/jointset/hip_l/hip_rotation_l/speed	/jointset/back/lumbar_extension/speed	/jointset/patellofemoral_l/patellar_flexion_l/speed	/jointset/knee_l/knee_flexion_l/speed	/jointset/knee_l/knee_adduction_l/speed	/jointset/knee_l/knee_rotation_l/speed	/jointset/ankle_l/ankle_angle_l/speed	/jointset/subtalar_l/subtalar_angle_l/speed	/forceset/tau_hip_flexion_l	/forceset/tau_hip_adduction_l	/forceset/tau_hip_rotation_l	/forceset/tau_knee_flexion_l	/forceset/tau_ankle_angle_l	/forceset/tau_subtalar_angle_l	/forceset/tau_lumbar_extension	lambda_cid13_p0	lambda_cid13_p1	lambda_cid13_p2	lambda_cid13_p3	lambda_cid13_p4	lambda_cid13_p5	lambda_cid14_p0	/jointset/ground_pelvis/pelvis_tilt/accel	/jointset/ground_pelvis/pelvis_tx/accel	/jointset/ground_pelvis/pelvis_ty/accel	/jointset/hip_l/hip_flexion_l/accel	/jointset/hip_l/hip_adduction_l/accel	/jointset/hip_l/hip_rotation_l/accel	/jointset/back/lumbar_extension/accel	/jointset/patellofemoral_l/patellar_flexion_l/accel	/jointset/knee_l/knee_flexion_l/accel	/jointset/knee_l/knee_adduction_l/accel	/jointset/knee_l/knee_rotation_l/accel	/jointset/ankle_l/ankle_angle_l/accel	/jointset/subtalar_l/subtalar_angle_l/accel	gamma_cid13_p0	gamma_cid13_p1	gamma_cid13_p2	gamma_cid13_p3	gamma_cid13_p4	gamma_cid13_p5	gamma_cid14_p0
1	-0.2306866651278552	-0.1036529499947774	0.6411764818327297	1.565073222468083	-0.3196402639829004	0.07119134895956193	-0.959930842653597	1.411300104650884	1.411300104650885	-0.05171122932241005	-0.1745328001730387	0.1726217245598974	0.03164448274418356	0.09330112877232462	0.02037860858987745	0.07493389604721902	-0.2916288730450194	-0.007482261296245711	-0.06306227488637779	-4.51725275333991e-06	-0.1645350029889811	-0.164535002988989	-0.004361012366266316	4.618844188569572e-06	0.02507781200678857	0.001777672008944679	-0.4611343418508562	-0.007365372599169437	-0.0002397566108577328	-0.3347162153506835	0.1031488371977204	0.03029466176701496	0.4701906266755163	-19.27625326172587	-8.776977699402345	-0.2028107430920635	9.65355757106872	-814.9273239022207	-67.10339509816811	-0.04149247782544931	1.1645664031465	0.08235854437155425	1.766703155779877	-5.92081777850195	-0.2144978978466503	-1.656949491168172	-0.008678496657418351	-5.076938666767744	-5.076938666767741	-0.429116965804977	-0.02223143129796929	-0.663100021869121	-0.4851281795965093	-1.089546866189277e-08	1.821403186876859e-09	5.49603976547731e-08	4.048642335409599e-09	-2.343098835930744e-08	1.291587492774411e-07	-1.808522469872301e-08
1.01	-0.2296957849757671	-0.1034450099219701	0.6420139034363868	1.561861843869863	-0.3197249297387582	0.07047735038773145	-0.959930821298433	1.409401272242862	1.409401272242863	-0.05177455212273856	-0.1745327795739173	0.1728393544857206	0.03163906025276677	0.1048844169651216	0.02121577292696608	0.09253496634429276	-0.3506205235114686	-0.009439204418682266	-0.07972908281742899	5.458959736449051e-06	-0.2152153474868294	-0.2152153474868265	-0.008297670610145131	-1.654344862776931e-07	0.0184297690818481	-0.002855618277348659	-0.4600668834799532	-0.007194284192009921	-0.000297298355978991	-0.3345968066280577	0.103124946176319	0.0304848521830652	0.4695711107597164	-19.23059526530557	-8.877282499484114	-0.1757275220164911	9.509687282246087	-814.2924055558075	-67.23686657638729	-0.04153121242998793	1.156634538382175	0.0853512445173699	1.754484427554974	-5.884393663080108	-0.1845440286404428	-1.670312144086599	0.005336281534390682	-5.061157802611087	-5.061157802609467	-0.375072370781519	0.01046808420773828	-0.6684175564753289	-0.4514546172526252	-1.502529710615891e-08	-7.141274523579264e-09	7.805864081192664e-08	4.113509808855245e-09	-2.888555787309269e-08	1.53554161711365e-07	-2.428445568403683e-08
1.02	-0.2285887870395444	-0.1032285070325639	0.6430268708351914	1.558061337770505	-0.3198288152276801	0.06959693059658757	-0.9599308000608887	1.406996121297599	1.406996121297599	-0.05187706792892638	-0.1745327928155188	0.1729899517565605	0.03158749982566567	0.1165246855993547	0.02209117190965114	0.1100430550767197	-0.4094543732724656	-0.01132620790905001	-0.09634651874900059	-4.540774484560023e-06	-0.2657987104373868	-0.2657987104373732	-0.01219961353811153	-2.149298761828383e-06	0.01167128101015459	-0.007449915127917271	-0.4589994251090497	-0.007023195784850615	-0.0003548401010990361	-0.3344773979054323	0.1031010551549172	0.03067504259911502	0.468951594843917	-19.19370155621935	-8.974972825730221	-0.1502944707392915	9.406470090746783	-813.7709501942179	-67.34385420902615	-0.04156884555677271	1.175962491433732	0.0900054734908389	1.748106842850522	-5.889257637411506	-0.2005099714328864	-1.64707509127225	-0.01267368599956426	-5.057542357309556	-5.057542357309583	-0.4221739026224924	-0.02167134841810658	-0.6851890512197273	-0.4773294924515623	-2.009278952550968e-08	-1.6200505267618e-08	9.965277219102445e-08	6.552245039107218e-09	-3.508269887080104e-08	1.758118482207163e-07	-3.008547915101132e-08
1.03	-0.2273650306736628	-0.1030030290176915	0.6442144151381929	1.553673289546687	-0.3199511972797375	0.06855063485064859	-0.9599309209859029	1.404085639085068	1.404085639085068	-0.05201846601815413	-0.174532828796055	0.1730723494016423	0.0314902003688838	0.1282429841306135	0.0230136982197979	0.1274466172451984	-0.4681288304166282	-0.0131350047043742	-0.1129013968609342	-1.722560128224708e-05	-0.3162806404318528	-0.3162806404318514	-0.01607453155199695	-4.68977037377856e-06	0.004783866166208102	-0.0120010742380924	-0.4578401875787749	-0.006778008368223558	-0.0004398078751447084	-0.3341197823855848	0.1030272522878976	0.03096509346231992	0.4683273894201632	-19.15376940448104	-9.123427660630016	-0.1089290085824268	9.239951810415544	-813.0528429642075	-67.51119033033828	-0.0416244848954497	1.17221923279471	0.09476810099140355	1.733594367002016	-5.852578371627317	-0.1687934045293507	-1.658038080212858	0.004796912827495598	-5.040947363353262	-5.040947363355074	-0.3693504076299244	0.0105381782484654	-0.6941764861111094	-0.442683930982981	-2.516984994460623e-08	-2.526072124669329e-08	1.212315554907543e-07	9.015203409734778e-09	-4.128741712854941e-08	1.980477212002249e-07	-3.588243927596194e-08
